<svg width="20" height="20" viewBox="0 0 20 20" fill="none" xmlns="http://www.w3.org/2000/svg">
<path d="M16.875 3.75H3.125C2.77982 3.75 2.5 4.02982 2.5 4.375V15.625C2.5 15.9702 2.77982 16.25 3.125 16.25H16.875C17.2202 16.25 17.5 15.9702 17.5 15.625V4.375C17.5 4.02982 17.2202 3.75 16.875 3.75Z" stroke="#4D4D4D" stroke-linecap="round" stroke-linejoin="round"/>
<path d="M6 12.5H14.125" stroke="#4D4D4D" stroke-linecap="round" stroke-linejoin="round"/>
<path d="M11 10L14 10" stroke="#4D4D4D" stroke-linecap="round" stroke-linejoin="round"/>
<path d="M11 7.5L14 7.5" stroke="#4D4D4D" stroke-linecap="round" stroke-linejoin="round"/>
<path d="M7.5 7.5C8.32843 7.5 9 8.17157 9 9C9 9.82843 8.32843 10.5 7.5 10.5C6.67157 10.5 6 9.82843 6 9C6 8.17157 6.67157 7.5 7.5 7.5Z" stroke="#4D4D4D"/>
</svg>
