<svg width="20" height="20" viewBox="0 0 20 20" fill="none" xmlns="http://www.w3.org/2000/svg">
<path d="M2.4209 16.8743C3.1893 15.5442 4.29419 14.4398 5.62456 13.672C6.95493 12.9042 8.46393 12.5 9.99997 12.5C11.536 12.5 13.045 12.9043 14.3754 13.6721C15.7057 14.44 16.8106 15.5444 17.579 16.8744M13.7499 4.375H17.4999M15.6249 2.5V6.25M14.6914 9.23303C14.3572 10.1354 13.7695 10.9221 12.999 11.4987C12.2285 12.0752 11.308 12.417 10.3479 12.483C9.38787 12.549 8.42919 12.3364 7.58703 11.8708C6.74488 11.4052 6.05507 10.7063 5.60048 9.85814C5.14588 9.00997 4.94584 8.04859 5.02439 7.0895C5.10293 6.1304 5.45671 5.21438 6.04324 4.45148C6.62977 3.68857 7.42409 3.11124 8.33078 2.78883C9.23747 2.46642 10.218 2.41265 11.1545 2.63397" stroke="#4D4D4D" stroke-linecap="round" stroke-linejoin="round"/>
</svg>
